<svg width="628" height="628" viewBox="0 0 628 628" fill="none" xmlns="http://www.w3.org/2000/svg">
<g filter="url(#filter0_f_119_56)">
<path d="M310.045 200.342C306.656 200.93 303.44 202.265 300.63 204.251H300.659C296.741 207.017 293.777 210.938 292.182 215.471L281.809 247.322C279.886 253.197 276.965 258.686 273.176 263.576C266.539 272.099 257.54 278.476 247.302 281.911L215.73 292.176C211.169 293.723 207.202 296.655 204.383 300.563C201.564 304.471 200.032 309.161 200 313.981C199.969 318.801 201.44 323.511 204.208 327.456C206.976 331.4 210.904 334.383 215.445 335.989L247.359 346.34C255.157 349.051 262.235 353.502 268.059 359.356C273.882 365.211 278.297 372.315 280.969 380.13L291.455 412.424C293.037 417.029 296.028 421.02 300.003 423.829C303.939 426.546 308.608 428 313.389 428C318.17 428 322.838 426.546 326.774 423.829C330.686 421.066 333.643 417.155 335.237 412.637L345.595 380.744C348.276 372.721 352.788 365.434 358.773 359.46C364.757 353.486 372.05 348.989 380.073 346.326L411.631 336.061C415.133 334.996 418.332 333.112 420.963 330.566C423.594 328.021 425.583 324.885 426.764 321.418C427.946 317.952 428.287 314.254 427.759 310.63C427.23 307.005 425.849 303.559 423.727 300.574C420.973 296.644 417.056 293.677 412.529 292.091L380.643 281.726C372.626 279.046 365.342 274.536 359.368 268.553C353.393 262.569 348.893 255.276 346.222 247.251L335.251 213.889C333.87 210.736 331.805 207.931 329.206 205.676C326.607 203.42 323.54 201.772 320.226 200.849C316.912 199.927 313.434 199.753 310.045 200.342Z" fill="#FFB628"/>
</g>
<path d="M150.832 426.436C156.099 434.058 165.723 438.04 178.462 438.818C191.208 439.598 207.164 437.179 225.245 431.901C261.413 421.345 306.196 399.318 351.036 368.333C395.876 337.348 432.317 303.248 454.981 273.15C466.312 258.104 474.217 244.034 477.996 231.836C481.773 219.645 481.451 209.235 476.184 201.613C470.917 193.991 461.294 190.009 448.555 189.23C435.809 188.451 419.853 190.87 401.771 196.147C365.603 206.704 320.82 228.731 275.98 259.716C231.14 290.701 194.7 324.801 172.035 354.899C160.705 369.945 152.8 384.015 149.021 396.213C145.244 408.404 145.565 418.814 150.832 426.436Z" stroke="#101010"/>
<circle cx="168.5" cy="364.5" r="31.5" fill="#FFB628"/>
<path d="M413.376 186.424C413.187 186.498 413.017 186.614 412.878 186.762L412.879 186.762C412.685 186.969 412.56 187.231 412.522 187.513L412.3 189.481C412.259 189.844 412.155 190.196 411.994 190.524C411.711 191.097 411.266 191.573 410.714 191.894L409.008 192.864C408.762 193.008 408.568 193.225 408.451 193.485C408.334 193.745 408.301 194.035 408.357 194.314C408.412 194.594 408.554 194.849 408.761 195.044C408.968 195.24 409.231 195.366 409.513 195.405L411.484 195.624C411.968 195.688 412.431 195.862 412.838 196.132C413.245 196.401 413.585 196.76 413.833 197.181L414.824 198.926C414.971 199.174 415.192 199.369 415.455 199.485C415.715 199.595 416.003 199.624 416.28 199.567C416.557 199.51 416.81 199.37 417.005 199.166C417.199 198.959 417.324 198.698 417.362 198.417L417.582 196.447C417.642 195.951 417.817 195.475 418.092 195.058C418.367 194.641 418.736 194.293 419.169 194.044L420.874 193.074C421.064 192.97 421.227 192.823 421.349 192.644C421.471 192.466 421.549 192.26 421.576 192.046C421.603 191.831 421.579 191.613 421.505 191.409C421.432 191.205 421.311 191.022 421.152 190.875C420.946 190.68 420.684 190.555 420.403 190.517L418.433 190.296C417.937 190.236 417.461 190.062 417.044 189.787C416.627 189.511 416.28 189.143 416.029 188.71L414.997 186.908C414.88 186.742 414.727 186.604 414.549 186.505C414.372 186.405 414.175 186.346 413.972 186.332C413.769 186.318 413.565 186.35 413.376 186.424Z" fill="#FFB628"/>
<path d="M91 193.5C91 138.548 135.548 94 190.5 94V94C245.452 94 290 138.548 290 193.5V285.485H91V193.5Z" fill="#FFB628"/>
<path d="M307.5 193.5V304.956H109.5V193.5C109.5 138.824 153.824 94.5 208.5 94.5C263.176 94.5 307.5 138.824 307.5 193.5Z" stroke="#101010"/>
<path d="M169.577 264.495H171.395V251.895H169.577V257.169H163.943V251.895H162.107V264.495H163.943V258.735H169.577V264.495ZM176.878 264.765C178.336 264.765 179.326 263.829 179.722 262.659V264.495H181.468V258.447C181.468 256.107 179.812 255.207 177.778 255.207C175.384 255.207 174.016 256.611 174.016 258.123L175.834 258.303C175.834 257.403 176.464 256.755 177.778 256.755C178.444 256.755 179.398 256.917 179.65 257.655C180.046 258.807 178.804 258.897 177.724 259.059C175.456 259.383 173.854 260.067 173.854 262.101C173.854 263.847 175.366 264.765 176.878 264.765ZM175.69 262.047C175.69 261.255 176.266 260.679 177.508 260.481C178.642 260.301 179.398 260.067 179.722 259.635V260.139C179.722 262.263 178.462 263.217 177.148 263.217C176.338 263.217 175.69 262.731 175.69 262.047ZM188.706 264.783C191.334 264.783 192.792 262.605 192.792 260.031C192.792 257.457 191.334 255.207 188.706 255.207C187.266 255.207 186.276 255.963 185.844 257.133V255.495H184.098V268.095H185.844V262.911C186.276 264.063 187.266 264.783 188.706 264.783ZM185.844 260.085C185.844 257.763 187.086 256.755 188.4 256.755C189.786 256.755 190.956 257.745 190.956 260.031C190.956 262.317 189.714 263.235 188.4 263.235C187.086 263.235 185.844 262.281 185.844 260.085ZM199.674 264.783C202.302 264.783 203.76 262.605 203.76 260.031C203.76 257.457 202.302 255.207 199.674 255.207C198.234 255.207 197.244 255.963 196.812 257.133V255.495H195.066V268.095H196.812V262.911C197.244 264.063 198.234 264.783 199.674 264.783ZM196.812 260.085C196.812 257.763 198.054 256.755 199.368 256.755C200.754 256.755 201.924 257.745 201.924 260.031C201.924 262.317 200.682 263.235 199.368 263.235C198.054 263.235 196.812 262.281 196.812 260.085ZM207.133 268.095H208.951L214.117 255.495H212.281L209.491 262.299L206.665 255.495H204.847L208.591 264.495L207.133 268.095ZM225.444 264.783C228.036 264.783 230.556 263.343 231.078 259.833L229.242 259.653C228.828 261.849 227.676 263.163 225.444 263.163C222.87 263.163 221.394 261.021 221.394 258.213C221.394 255.387 222.87 253.227 225.444 253.227C227.676 253.227 228.81 254.703 229.224 256.845L231.078 256.647C230.556 253.137 228.036 251.607 225.444 251.607C222.636 251.607 219.558 253.641 219.558 258.213C219.558 262.767 222.636 264.783 225.444 264.783ZM233.527 264.495H235.363V251.715H233.527V264.495ZM238.29 264.495H240.126V255.495H238.29V264.495ZM238.164 254.055H240.252V252.147H238.164V254.055ZM246.712 264.783C248.872 264.783 250.42 263.685 250.69 261.885L248.89 261.705C248.746 262.299 248.332 263.235 246.712 263.235C245.092 263.235 244.192 261.975 244.192 260.409H250.726V260.031C250.726 256.737 248.872 255.207 246.712 255.207C244.552 255.207 242.356 256.737 242.356 260.031C242.356 263.343 244.552 264.783 246.712 264.783ZM244.192 259.077C244.192 258.051 245.092 256.755 246.712 256.755C248.332 256.755 248.98 258.051 248.98 259.077H244.192ZM258.602 258.663V264.495H260.438V258.573C260.438 256.467 259.466 255.207 257.612 255.207C256.046 255.207 255.074 256.035 254.66 257.277V255.495H252.824V264.495H254.66V260.247C254.66 257.529 255.866 256.755 256.946 256.755C257.846 256.755 258.602 257.115 258.602 258.663ZM266.208 264.495H267.666V262.947H266.604C265.668 262.947 265.326 262.767 265.326 261.651V257.043H267.666V255.495H265.326V252.597L263.652 252.777V255.495H262.122V257.043H263.652V261.957C263.652 263.775 264.552 264.495 266.208 264.495ZM273.388 264.783C275.548 264.783 277.222 263.703 277.222 261.903C277.222 260.103 275.71 259.329 274.18 259.131L272.956 258.951C272.002 258.825 271.534 258.519 271.534 257.889C271.534 257.133 272.308 256.755 273.262 256.755C274.342 256.755 275.008 257.259 275.008 258.213L276.754 258.033C276.754 256.287 275.242 255.207 273.262 255.207C271.282 255.207 269.716 256.179 269.716 257.853C269.716 259.293 270.832 260.211 272.254 260.409L273.64 260.589C274.558 260.715 275.386 260.967 275.386 261.921C275.386 262.821 274.522 263.235 273.388 263.235C272.236 263.235 270.958 262.533 270.958 261.039L269.212 261.219C269.212 263.613 271.228 264.783 273.388 264.783Z" fill="#101010"/>
<path d="M161.947 173.398H186.331V167.974H177.691V139.798H170.587C170.587 146.998 168.859 149.398 165.019 149.398H161.947V154.822H165.019C167.947 154.822 169.675 153.67 170.587 151.27V167.974H161.947V173.398ZM202.103 174.166C211.223 174.166 216.839 167.158 216.839 156.598C216.839 146.038 211.223 139.03 202.103 139.03C192.983 139.03 187.319 146.038 187.319 156.598C187.319 167.158 192.983 174.166 202.103 174.166ZM194.423 156.598C194.423 149.398 197.207 144.454 202.103 144.454C206.999 144.454 209.735 149.398 209.735 156.598C209.735 163.798 206.999 168.742 202.103 168.742C197.207 168.742 194.423 163.798 194.423 156.598ZM233.557 174.166C242.677 174.166 248.293 167.158 248.293 156.598C248.293 146.038 242.677 139.03 233.557 139.03C224.437 139.03 218.773 146.038 218.773 156.598C218.773 167.158 224.437 174.166 233.557 174.166ZM225.877 156.598C225.877 149.398 228.661 144.454 233.557 144.454C238.453 144.454 241.189 149.398 241.189 156.598C241.189 163.798 238.453 168.742 233.557 168.742C228.661 168.742 225.877 163.798 225.877 156.598ZM260.93 170.662H266.354V161.926H275.138V156.502H266.354V147.67H260.93V156.502H252.146V161.926H260.93V170.662Z" fill="#101010"/>
<path d="M109.101 247.934C108.759 248.003 108.435 248.162 108.151 248.397H108.154C107.759 248.725 107.46 249.189 107.299 249.727L106.253 253.501C106.059 254.197 105.764 254.848 105.382 255.427C104.712 256.437 103.804 257.193 102.772 257.6L99.5868 258.817C99.1267 259 98.7265 259.347 98.4421 259.811C98.1577 260.274 98.0032 260.829 98 261.401C97.9969 261.972 98.1452 262.53 98.4245 262.997C98.7037 263.465 99.1 263.818 99.5581 264.009L102.777 265.235C103.564 265.557 104.278 266.084 104.866 266.778C105.453 267.472 105.898 268.314 106.168 269.24L107.226 273.067C107.385 273.612 107.687 274.085 108.088 274.418C108.485 274.74 108.956 274.913 109.438 274.913C109.921 274.913 110.392 274.74 110.789 274.418C111.183 274.091 111.482 273.627 111.642 273.092L112.687 269.312C112.958 268.362 113.413 267.498 114.017 266.79C114.62 266.082 115.356 265.549 116.165 265.234L119.349 264.017C119.702 263.891 120.025 263.668 120.29 263.366C120.556 263.064 120.756 262.693 120.875 262.282C120.995 261.871 121.029 261.433 120.976 261.003C120.922 260.574 120.783 260.166 120.569 259.812C120.291 259.346 119.896 258.995 119.439 258.807L116.223 257.578C115.414 257.261 114.679 256.726 114.077 256.017C113.474 255.308 113.02 254.444 112.75 253.493L111.644 249.539C111.504 249.166 111.296 248.833 111.034 248.566C110.772 248.299 110.462 248.103 110.128 247.994C109.794 247.884 109.443 247.864 109.101 247.934Z" fill="#101010"/>
<path d="M289 416.5C289 471.452 333.548 516 388.5 516V516C443.452 516 488 471.452 488 416.5L488 324.515L289 324.515L289 416.5Z" fill="#FFB628"/>
<path d="M505.5 416.5L505.5 305.044L307.5 305.044L307.5 416.5C307.5 471.176 351.824 515.5 406.5 515.5C461.176 515.5 505.5 471.176 505.5 416.5Z" stroke="#101010"/>
<path d="M320.494 350.738L322.33 350.738L322.33 345.302L324.67 345.302C325.75 345.302 329.044 344.96 329.044 341.72C329.044 338.48 325.75 338.138 324.67 338.138L320.494 338.138L320.494 350.738ZM322.33 343.736L322.33 339.686L324.31 339.686C326.164 339.686 327.208 340.226 327.208 341.72C327.208 343.232 326.164 343.736 324.31 343.736L322.33 343.736ZM330.773 350.738L332.609 350.738L332.609 346.652C332.609 344.294 333.383 343.286 334.877 343.286L336.191 343.286L336.191 341.738L335.057 341.738C333.959 341.738 333.023 342.386 332.609 343.628L332.609 341.738L330.773 341.738L330.773 350.738ZM341.45 351.026C343.664 351.026 345.824 349.532 345.824 346.256C345.824 342.998 343.664 341.45 341.45 341.45C339.218 341.45 337.04 342.998 337.04 346.256C337.04 349.532 339.218 351.026 341.45 351.026ZM338.876 346.256C338.876 344.348 339.704 342.998 341.45 342.998C343.178 342.998 344.024 344.348 344.024 346.256C344.024 348.182 343.178 349.478 341.45 349.478C339.704 349.478 338.876 348.182 338.876 346.256ZM345.932 354.338L347.39 354.338C349.064 354.338 350.072 353.618 350.072 351.8L350.072 341.738L348.272 341.738L348.272 351.494C348.272 352.61 347.984 352.79 346.994 352.79L345.932 352.79L345.932 354.338ZM348.128 340.298L350.216 340.298L350.216 338.39L348.128 338.39L348.128 340.298ZM356.847 351.026C359.007 351.026 360.555 349.928 360.825 348.128L359.025 347.948C358.881 348.542 358.467 349.478 356.847 349.478C355.227 349.478 354.327 348.218 354.327 346.652L360.861 346.652L360.861 346.274C360.861 342.98 359.007 341.45 356.847 341.45C354.687 341.45 352.491 342.98 352.491 346.274C352.491 349.586 354.687 351.026 356.847 351.026ZM354.327 345.32C354.327 344.294 355.227 342.998 356.847 342.998C358.467 342.998 359.115 344.294 359.115 345.32L354.327 345.32ZM367.009 351.026C369.169 351.026 370.753 350.144 371.131 347.516L369.313 347.336C369.025 348.74 368.377 349.478 367.009 349.478C365.245 349.478 364.435 348.074 364.435 346.274C364.435 344.51 365.245 342.998 367.009 342.998C368.431 342.998 369.025 343.862 369.313 345.248L371.131 345.068C370.735 342.404 369.187 341.45 367.009 341.45C364.759 341.45 362.599 343.016 362.599 346.274C362.599 349.532 364.759 351.026 367.009 351.026ZM376.536 350.738L377.994 350.738L377.994 349.19L376.932 349.19C375.996 349.19 375.654 349.01 375.654 347.894L375.654 343.286L377.994 343.286L377.994 341.738L375.654 341.738L375.654 338.84L373.98 339.02L373.98 341.738L372.45 341.738L372.45 343.286L373.98 343.286L373.98 348.2C373.98 350.018 374.88 350.738 376.536 350.738ZM383.716 351.026C385.876 351.026 387.55 349.946 387.55 348.146C387.55 346.346 386.038 345.572 384.508 345.374L383.284 345.194C382.33 345.068 381.862 344.762 381.862 344.132C381.862 343.376 382.636 342.998 383.59 342.998C384.67 342.998 385.336 343.502 385.336 344.456L387.082 344.276C387.082 342.53 385.57 341.45 383.59 341.45C381.61 341.45 380.044 342.422 380.044 344.096C380.044 345.536 381.16 346.454 382.582 346.652L383.968 346.832C384.886 346.958 385.714 347.21 385.714 348.164C385.714 349.064 384.85 349.478 383.716 349.478C382.564 349.478 381.286 348.776 381.286 347.282L379.54 347.462C379.54 349.856 381.556 351.026 383.716 351.026ZM325.84 374.026C328.432 374.026 330.952 372.586 331.474 369.076L329.638 368.896C329.224 371.092 328.072 372.406 325.84 372.406C323.266 372.406 321.79 370.264 321.79 367.456C321.79 364.63 323.266 362.47 325.84 362.47C328.072 362.47 329.206 363.946 329.62 366.088L331.474 365.89C330.952 362.38 328.432 360.85 325.84 360.85C323.032 360.85 319.954 362.884 319.954 367.456C319.954 372.01 323.032 374.026 325.84 374.026ZM333.919 373.738L335.755 373.738L335.755 369.652C335.755 367.294 336.529 366.286 338.023 366.286L339.337 366.286L339.337 364.738L338.203 364.738C337.105 364.738 336.169 365.386 335.755 366.628L335.755 364.738L333.919 364.738L333.919 373.738ZM344.542 374.026C346.702 374.026 348.25 372.928 348.52 371.128L346.72 370.948C346.576 371.542 346.162 372.478 344.542 372.478C342.922 372.478 342.022 371.218 342.022 369.652L348.556 369.652L348.556 369.274C348.556 365.98 346.702 364.45 344.542 364.45C342.382 364.45 340.186 365.98 340.186 369.274C340.186 372.586 342.382 374.026 344.542 374.026ZM342.022 368.32C342.022 367.294 342.922 365.998 344.542 365.998C346.162 365.998 346.81 367.294 346.81 368.32L342.022 368.32ZM353.318 374.008C354.776 374.008 355.766 373.072 356.162 371.902L356.162 373.738L357.908 373.738L357.908 367.69C357.908 365.35 356.252 364.45 354.218 364.45C351.824 364.45 350.456 365.854 350.456 367.366L352.274 367.546C352.274 366.646 352.904 365.998 354.218 365.998C354.884 365.998 355.838 366.16 356.09 366.898C356.486 368.05 355.244 368.14 354.164 368.302C351.896 368.626 350.294 369.31 350.294 371.344C350.294 373.09 351.806 374.008 353.318 374.008ZM352.13 371.29C352.13 370.498 352.706 369.922 353.948 369.724C355.082 369.544 355.838 369.31 356.162 368.878L356.162 369.382C356.162 371.506 354.902 372.46 353.588 372.46C352.778 372.46 352.13 371.974 352.13 371.29ZM363.669 373.738L365.127 373.738L365.127 372.19L364.065 372.19C363.129 372.19 362.787 372.01 362.787 370.894L362.787 366.286L365.127 366.286L365.127 364.738L362.787 364.738L362.787 361.84L361.113 362.02L361.113 364.738L359.583 364.738L359.583 366.286L361.113 366.286L361.113 371.2C361.113 373.018 362.013 373.738 363.669 373.738ZM371.033 374.026C373.193 374.026 374.741 372.928 375.011 371.128L373.211 370.948C373.067 371.542 372.653 372.478 371.033 372.478C369.413 372.478 368.513 371.218 368.513 369.652L375.047 369.652L375.047 369.274C375.047 365.98 373.193 364.45 371.033 364.45C368.873 364.45 366.677 365.98 366.677 369.274C366.677 372.586 368.873 374.026 371.033 374.026ZM368.513 368.32C368.513 367.294 369.413 365.998 371.033 365.998C372.653 365.998 373.301 367.294 373.301 368.32L368.513 368.32ZM380.87 374.026C382.31 374.026 383.3 373.27 383.732 372.1L383.732 373.738L385.478 373.738L385.478 361.138L383.732 361.138L383.732 366.322C383.3 365.17 382.31 364.45 380.87 364.45C378.242 364.45 376.784 366.628 376.784 369.202C376.784 371.776 378.242 374.026 380.87 374.026ZM378.62 369.202C378.62 366.916 379.862 365.998 381.176 365.998C382.49 365.998 383.732 366.952 383.732 369.148C383.732 371.47 382.49 372.478 381.176 372.478C379.79 372.478 378.62 371.488 378.62 369.202Z" fill="#101010"/>
<path d="M321.4 450.903L345.784 450.903L345.784 445.479L337.144 445.479L337.144 417.303L330.04 417.303C330.04 424.503 328.312 426.903 324.472 426.903L321.4 426.903L321.4 432.327L324.472 432.327C327.4 432.327 329.128 431.175 330.04 428.775L330.04 445.479L321.4 445.479L321.4 450.903ZM361.017 451.671C369.177 451.671 374.457 446.679 374.457 439.959C374.457 433.239 369.177 428.439 361.017 428.439C358.665 428.439 357.033 428.823 355.929 429.495L356.409 422.727L371.913 422.727L371.913 417.303L349.737 417.303L348.105 436.407L354.921 436.407C355.881 434.967 357.657 433.671 361.017 433.671C364.857 433.671 367.353 436.119 367.353 439.959C367.353 443.799 364.857 446.295 361.017 446.295C357.177 446.295 354.873 443.751 354.873 440.871L347.721 441.351C347.721 447.591 352.857 451.671 361.017 451.671ZM391.65 451.671C400.77 451.671 406.386 444.663 406.386 434.103C406.386 423.543 400.77 416.535 391.65 416.535C382.53 416.535 376.866 423.543 376.866 434.103C376.866 444.663 382.53 451.671 391.65 451.671ZM383.97 434.103C383.97 426.903 386.754 421.959 391.65 421.959C396.546 421.959 399.282 426.903 399.282 434.103C399.282 441.303 396.546 446.247 391.65 446.247C386.754 446.247 383.97 441.303 383.97 434.103ZM419.023 448.167L424.447 448.167L424.447 439.431L433.231 439.431L433.231 434.007L424.447 434.007L424.447 425.175L419.023 425.175L419.023 434.007L410.239 434.007L410.239 439.431L419.023 439.431L419.023 448.167Z" fill="#101010"/>
<path d="M307.136 292.833C306.824 292.897 306.527 293.041 306.269 293.256H306.271C305.91 293.555 305.637 293.98 305.49 294.47L304.535 297.917C304.358 298.552 304.089 299.146 303.74 299.675C303.129 300.597 302.3 301.287 301.357 301.659L298.449 302.77C298.029 302.937 297.663 303.254 297.404 303.677C297.144 304.1 297.003 304.608 297 305.129C296.997 305.651 297.133 306.16 297.388 306.587C297.643 307.014 298.004 307.337 298.423 307.51L301.362 308.63C302.08 308.924 302.732 309.405 303.269 310.039C303.805 310.672 304.212 311.441 304.458 312.287L305.423 315.781C305.569 316.279 305.845 316.711 306.211 317.015C306.573 317.309 307.003 317.466 307.444 317.466C307.884 317.466 308.314 317.309 308.677 317.015C309.037 316.716 309.309 316.293 309.456 315.804L310.41 312.353C310.657 311.485 311.073 310.696 311.624 310.05C312.175 309.404 312.847 308.917 313.586 308.629L316.492 307.518C316.815 307.403 317.109 307.199 317.352 306.924C317.594 306.648 317.777 306.309 317.886 305.934C317.995 305.559 318.026 305.159 317.978 304.766C317.929 304.374 317.802 304.001 317.606 303.678C317.353 303.253 316.992 302.932 316.575 302.761L313.638 301.639C312.9 301.349 312.229 300.861 311.679 300.214C311.128 299.566 310.714 298.777 310.468 297.909L309.457 294.299C309.33 293.958 309.14 293.654 308.901 293.41C308.661 293.166 308.379 292.988 308.073 292.888C307.768 292.788 307.448 292.769 307.136 292.833Z" fill="#101010"/>
<circle cx="429.628" cy="303.628" r="9.62753" fill="#FFB628"/>
<circle cx="473.5" cy="102.5" r="2.5" fill="#101010"/>
<circle cx="461.5" cy="112.5" r="5.5" fill="#101010"/>
<defs>
<filter id="filter0_f_119_56" x="0" y="0" width="628" height="628" filterUnits="userSpaceOnUse" color-interpolation-filters="sRGB">
<feFlood flood-opacity="0" result="BackgroundImageFix"/>
<feBlend mode="normal" in="SourceGraphic" in2="BackgroundImageFix" result="shape"/>
<feGaussianBlur stdDeviation="100" result="effect1_foregroundBlur_119_56"/>
</filter>
</defs>
</svg>
