<svg width="828" height="828" viewBox="0 0 828 828" fill="none" xmlns="http://www.w3.org/2000/svg">
<g filter="url(#filter0_f_102_3)">
<path d="M406.576 200.641C400.214 201.745 394.177 204.252 388.902 207.979H388.956C381.601 213.172 376.038 220.532 373.042 229.043L353.572 288.833C349.962 299.86 344.479 310.164 337.365 319.344C324.907 335.344 308.014 347.315 288.796 353.763L229.529 373.033C220.966 375.937 213.52 381.44 208.228 388.776C202.935 396.113 200.06 404.917 200.001 413.965C199.942 423.013 202.703 431.854 207.899 439.259C213.096 446.663 220.469 452.263 228.994 455.278L288.903 474.709C303.54 479.797 316.828 488.153 327.759 499.143C338.69 510.133 346.978 523.468 351.994 538.14L371.678 598.76C374.649 607.406 380.263 614.897 387.725 620.171C395.114 625.27 403.877 628 412.852 628C421.828 628 430.591 625.27 437.979 620.171C445.322 614.984 450.873 607.642 453.866 599.161L473.31 539.29C478.343 524.231 486.812 510.552 498.047 499.338C509.281 488.123 522.971 479.682 538.032 474.682L597.273 455.412C603.846 453.413 609.851 449.878 614.79 445.098C619.729 440.319 623.462 434.433 625.68 427.926C627.898 421.418 628.538 414.477 627.547 407.673C626.555 400.87 623.962 394.399 619.979 388.797C614.808 381.42 607.456 375.85 598.958 372.872L539.102 353.415C524.052 348.385 510.379 339.919 499.164 328.686C487.949 317.454 479.5 303.764 474.486 288.7L453.893 226.072C451.299 220.154 447.423 214.888 442.545 210.654C437.666 206.421 431.908 203.326 425.687 201.594C419.466 199.862 412.938 199.537 406.576 200.641Z" fill="#FFB628"/>
</g>
<defs>
<filter id="filter0_f_102_3" x="0" y="0" width="828" height="828" filterUnits="userSpaceOnUse" color-interpolation-filters="sRGB">
<feFlood flood-opacity="0" result="BackgroundImageFix"/>
<feBlend mode="normal" in="SourceGraphic" in2="BackgroundImageFix" result="shape"/>
<feGaussianBlur stdDeviation="100" result="effect1_foregroundBlur_102_3"/>
</filter>
</defs>
</svg>
