<svg width="382" height="322" viewBox="0 0 382 322" fill="none" xmlns="http://www.w3.org/2000/svg">
<path d="M229.941 105.388C257.222 124.239 281.035 144.546 300.046 164.436L303.395 166.754L302.905 167.462C312.027 177.236 319.967 186.885 326.567 196.186C336.904 210.755 343.968 224.492 347.114 236.531C350.26 248.569 349.505 258.975 344.102 266.794C338.698 274.614 329.231 279 316.859 280.314C304.485 281.629 289.138 279.88 271.854 275.363C237.283 266.327 194.857 246.184 152.753 217.09C110.65 187.996 76.8053 155.434 56.1276 126.292C45.79 111.723 38.7269 97.9858 35.5805 85.9465C32.4346 73.9092 33.1895 63.5029 38.5929 55.6834C45.927 45.0699 60.7377 40.7793 80.1999 41.9148C99.6895 43.0518 123.997 49.6339 150.556 60.9661C175.702 71.6957 202.887 86.6925 229.941 105.388Z" stroke="#101010"/>
<circle cx="68" cy="43" r="18" fill="#101010"/>
<circle cx="193" cy="162" r="107" fill="#FFB628"/>
<mask id="mask0_136_33" style="mask-type:alpha" maskUnits="userSpaceOnUse" x="82" y="127" width="219" height="146">
<path d="M300.539 166.136C300.539 226.922 253.833 272.085 193.047 272.085C132.261 272.085 82.9844 222.808 82.9844 162.022C82.9844 101.236 107.06 138.364 167.846 138.364C228.632 138.364 300.539 163.565 300.539 166.136Z" fill="#FFB628"/>
</mask>
<g mask="url(#mask0_136_33)">
<path d="M229.941 105.388C257.222 124.239 281.035 144.546 300.046 164.436L303.395 166.754L302.904 167.462C312.027 177.236 319.967 186.885 326.567 196.186C336.904 210.755 343.967 224.492 347.114 236.531C350.26 248.569 349.505 258.975 344.101 266.794C338.698 274.614 329.231 279 316.859 280.314C304.485 281.629 289.138 279.88 271.854 275.363C237.283 266.327 194.856 246.184 152.753 217.09C110.65 187.996 76.8052 155.434 56.1275 126.292C45.7899 111.723 38.7268 97.9858 35.5804 85.9465C32.4345 73.9092 33.1894 63.5029 38.5928 55.6834C45.9269 45.0699 60.7376 40.7793 80.1997 41.9148C99.6894 43.0518 123.997 49.6339 150.555 60.9661C175.702 71.6957 202.887 86.6925 229.941 105.388Z" stroke="#101010"/>
</g>
<path d="M354.032 161.048C353.63 161.131 353.249 161.318 352.917 161.597H352.92C352.456 161.985 352.105 162.535 351.916 163.171L350.688 167.642C350.46 168.466 350.114 169.237 349.666 169.923C348.88 171.119 347.814 172.014 346.602 172.496L342.863 173.937C342.323 174.154 341.853 174.566 341.519 175.114C341.185 175.663 341.004 176.321 341 176.997C340.996 177.674 341.171 178.335 341.498 178.889C341.826 179.442 342.291 179.861 342.829 180.086L346.608 181.539C347.532 181.919 348.37 182.544 349.06 183.366C349.749 184.187 350.272 185.185 350.588 186.281L351.83 190.814C352.018 191.46 352.372 192.02 352.842 192.415C353.309 192.796 353.861 193 354.428 193C354.994 193 355.547 192.796 356.013 192.415C356.476 192.027 356.826 191.478 357.015 190.844L358.241 186.368C358.559 185.242 359.093 184.219 359.802 183.38C360.511 182.542 361.374 181.911 362.324 181.537L366.062 180.096C366.476 179.947 366.855 179.682 367.167 179.325C367.478 178.968 367.714 178.528 367.854 178.041C367.994 177.555 368.034 177.036 367.971 176.527C367.909 176.018 367.745 175.535 367.494 175.116C367.168 174.564 366.704 174.148 366.168 173.925L362.392 172.47C361.443 172.094 360.58 171.461 359.873 170.621C359.165 169.782 358.632 168.758 358.316 167.632L357.017 162.949C356.853 162.507 356.608 162.113 356.301 161.797C355.993 161.48 355.63 161.249 355.237 161.119C354.845 160.99 354.433 160.965 354.032 161.048Z" fill="#101010"/>
<path d="M50.3092 148.019C50.1457 148.053 49.9905 148.129 49.855 148.242H49.8563C49.6673 148.4 49.5243 148.624 49.4474 148.882L48.9469 150.698C48.8542 151.033 48.7132 151.346 48.5304 151.625C48.2102 152.111 47.776 152.475 47.2821 152.67L45.7589 153.256C45.5388 153.344 45.3475 153.511 45.2115 153.734C45.0754 153.957 45.0015 154.224 45 154.499C44.9985 154.774 45.0695 155.042 45.203 155.267C45.3366 155.492 45.5261 155.662 45.7452 155.754L47.2849 156.344C47.6611 156.499 48.0026 156.752 48.2835 157.086C48.5645 157.42 48.7775 157.825 48.9064 158.271L49.4123 160.112C49.4886 160.374 49.6329 160.602 49.8247 160.762C50.0146 160.917 50.2398 161 50.4705 161C50.7012 161 50.9264 160.917 51.1163 160.762C51.305 160.605 51.4477 160.382 51.5246 160.124L52.0243 158.306C52.1537 157.848 52.3713 157.433 52.6601 157.092C52.9488 156.751 53.3007 156.495 53.6877 156.343L55.2103 155.758C55.3792 155.697 55.5335 155.59 55.6605 155.445C55.7874 155.299 55.8834 155.121 55.9404 154.923C55.9974 154.725 56.0138 154.514 55.9883 154.308C55.9629 154.101 55.8962 153.905 55.7939 153.734C55.661 153.51 55.472 153.341 55.2536 153.251L53.7152 152.66C53.3285 152.507 52.977 152.25 52.6888 151.909C52.4006 151.568 52.1834 151.152 52.0546 150.694L51.5253 148.792C51.4586 148.612 51.359 148.452 51.2336 148.324C51.1082 148.195 50.9603 148.101 50.8004 148.048C50.6405 147.996 50.4727 147.986 50.3092 148.019Z" fill="#101010"/>
<circle cx="236" cy="263" r="10" fill="#101010"/>
<circle r="3" transform="matrix(1 0 0 -1 265 263)" fill="#101010"/>
</svg>
