<svg width="415" height="345" viewBox="0 0 415 345" fill="none" xmlns="http://www.w3.org/2000/svg">
<path d="M38.2732 289.197C43.7393 297.107 53.7278 301.242 66.9568 302.05C80.1931 302.859 96.764 300.348 115.544 294.866C153.108 283.902 199.622 261.024 246.196 228.841C292.769 196.658 330.618 161.241 354.158 129.98C365.926 114.353 374.136 99.7406 378.06 87.0735C381.982 74.4134 381.647 63.6082 376.181 55.698C370.715 47.7878 360.726 43.6534 347.497 42.8448C334.261 42.0358 317.69 44.5475 298.91 50.0287C261.345 60.9927 214.832 83.871 168.258 116.054C121.685 148.237 83.8357 183.655 60.2959 214.915C48.5278 230.543 40.3182 245.155 36.3941 257.822C32.4722 270.482 32.8072 281.287 38.2732 289.197Z" stroke="#101010"/>
<circle cx="185" cy="265" r="10" fill="#FFB628"/>
<path d="M317.623 38.479C317.426 38.5563 317.249 38.6764 317.105 38.8306L317.107 38.8302C316.905 39.045 316.775 39.3175 316.736 39.6099L316.506 41.6539C316.462 42.0309 316.355 42.3972 316.187 42.7382C315.893 43.3329 315.431 43.8277 314.858 44.1609L313.086 45.1687C312.831 45.3181 312.628 45.5435 312.507 45.8134C312.386 46.0833 312.352 46.3844 312.409 46.6747C312.467 46.9649 312.614 47.23 312.829 47.4331C313.044 47.6361 313.317 47.7669 313.61 47.8074L315.658 48.0353C316.16 48.1019 316.641 48.2821 317.064 48.5622C317.486 48.8424 317.84 49.2151 318.097 49.6521L319.127 51.4647C319.279 51.7222 319.508 51.9252 319.782 52.045C320.053 52.1597 320.351 52.1895 320.639 52.1304C320.926 52.0712 321.189 51.926 321.392 51.714C321.594 51.4995 321.723 51.2277 321.763 50.9362L321.992 48.8899C322.054 48.3742 322.235 47.8801 322.521 47.4468C322.807 47.0135 323.19 46.6529 323.64 46.3935L325.411 45.3859C325.608 45.2785 325.778 45.1257 325.904 44.94C326.031 44.7544 326.112 44.5412 326.14 44.3181C326.168 44.095 326.143 43.8683 326.067 43.6569C325.99 43.4454 325.864 43.2552 325.7 43.1019C325.485 42.8996 325.213 42.7696 324.921 42.7302L322.875 42.501C322.36 42.439 321.866 42.2578 321.433 41.9718C321 41.6858 320.639 41.3028 320.379 40.8531L319.306 38.9822C319.184 38.8097 319.025 38.6664 318.841 38.5629C318.657 38.4594 318.452 38.3982 318.241 38.3837C318.031 38.3692 317.819 38.4017 317.623 38.479Z" fill="#FFB628"/>
</svg>
